<svg width="34" height="34" viewBox="0 0 34 34" fill="none" xmlns="http://www.w3.org/2000/svg">
<path d="M16.0382 0.0196626C7.05882 0.447209 -0.0271617 7.92528 7.82732e-05 16.9148C0.00837224 19.6528 0.669369 22.2371 1.8354 24.5205L0.0451259 33.2107C-0.0517184 33.6808 0.37225 34.0924 0.839233 33.9818L9.35462 31.9644C11.5424 33.0541 13.9996 33.6836 16.6003 33.7233C25.7781 33.8634 33.4307 26.5761 33.7168 17.4017C34.0234 7.56742 25.9069 -0.450329 16.0382 0.0196626ZM26.1989 26.1989C23.7051 28.6927 20.3893 30.0661 16.8626 30.0661C14.7976 30.0661 12.8205 29.6028 10.9862 28.6891L9.8003 28.0983L4.57949 29.3353L5.67844 24.0005L5.0942 22.8565C4.14194 20.9915 3.6591 18.9749 3.6591 16.8626C3.6591 13.3358 5.03248 10.0202 7.52629 7.52627C9.99781 5.05475 13.3676 3.65901 16.8629 3.65901C20.3896 3.65909 23.7051 5.03247 26.1989 7.52619C28.6927 10.02 30.0661 13.3356 30.0662 16.8624C30.0661 20.3577 28.6704 23.7275 26.1989 26.1989Z" fill="white"/>
<path d="M25.0463 20.5194L21.78 19.5816C21.3506 19.4583 20.8882 19.5801 20.5753 19.8989L19.7766 20.7127C19.4398 21.0559 18.9287 21.1661 18.4829 20.9858C16.9378 20.3605 13.6876 17.4706 12.8575 16.0251C12.618 15.6081 12.6576 15.0868 12.9517 14.7063L13.649 13.8042C13.9222 13.4507 13.9799 12.976 13.7992 12.5674L12.425 9.45936C12.0959 8.71493 11.1446 8.49823 10.5231 9.02384C9.61148 9.79485 8.52985 10.9665 8.39837 12.2645C8.16654 14.553 9.148 17.4378 12.8594 20.9018C17.147 24.9036 20.5806 25.4323 22.8161 24.8908C24.0841 24.5837 25.0975 23.3524 25.737 22.3443C26.173 21.6569 25.8287 20.7441 25.0463 20.5194Z" fill="white"/>
</svg>
