<svg width="30" height="29" viewBox="0 0 30 29" fill="none" xmlns="http://www.w3.org/2000/svg">
<path d="M0 3.33012C0 2.36485 0.337847 1.56851 1.01351 0.94112C1.68918 0.313697 2.56758 0 3.64865 0C4.71043 0 5.56949 0.308861 6.22587 0.926641C6.90153 1.56371 7.23938 2.3938 7.23938 3.41699C7.23938 4.34363 6.91121 5.11581 6.25483 5.73359C5.57916 6.37066 4.69112 6.68919 3.59073 6.68919H3.56178C2.49999 6.68919 1.64094 6.37066 0.984556 5.73359C0.328176 5.09652 0 4.29536 0 3.33012ZM0.376448 28.668V9.32432H6.80502V28.668H0.376448ZM10.3668 28.668H16.7954V17.8668C16.7954 17.1911 16.8726 16.6699 17.027 16.3031C17.2973 15.6467 17.7075 15.0917 18.2577 14.638C18.8079 14.1844 19.4981 13.9575 20.3282 13.9575C22.4904 13.9575 23.5714 15.415 23.5714 18.3301V28.668H30V17.5772C30 14.7201 29.3243 12.5531 27.973 11.0763C26.6216 9.59942 24.8359 8.861 22.6158 8.861C20.1255 8.861 18.1853 9.93243 16.7954 12.0753V12.1332H16.7664L16.7954 12.0753V9.32432H10.3668C10.4054 9.94207 10.4247 11.8629 10.4247 15.0869C10.4247 18.3108 10.4054 22.8378 10.3668 28.668Z" fill="#3D8B86"/>
</svg>
