<svg width="41" height="26" viewBox="0 0 41 26" fill="none" xmlns="http://www.w3.org/2000/svg">
<path d="M16.5467 11.6238C16.5467 11.6238 20.4267 11.3354 20.4267 6.77958C20.4267 2.22347 17.2524 0 13.2314 0H0V25.4602H13.2314C13.2314 25.4602 21.3087 25.7157 21.3087 17.9455C21.3087 17.9456 21.6609 11.6238 16.5467 11.6238ZM12.279 4.52527H13.2314C13.2314 4.52527 15.03 4.52526 15.03 7.17429C15.03 9.82299 13.9722 10.207 12.7725 10.207H5.82994V4.52527H12.279ZM12.8575 20.9351H5.82994V14.1312H13.2314C13.2314 14.1312 15.9121 14.096 15.9121 17.6277C15.9121 20.6057 13.9099 20.9126 12.8575 20.9351ZM32.0812 6.47783C22.3028 6.47783 22.3114 16.2604 22.3114 16.2604C22.3114 16.2604 21.6405 25.9928 32.0812 25.9928C32.0812 25.9928 40.7817 26.4905 40.7817 19.2225H36.3072C36.3072 19.2225 36.4564 21.9595 32.2305 21.9595C32.2305 21.9595 27.7552 22.2598 27.7552 17.53H40.9309C40.9309 17.5299 42.3726 6.47783 32.0812 6.47783ZM27.706 14.1312C27.706 14.1312 28.2524 10.2069 32.1806 10.2069C36.108 10.2069 36.0589 14.1312 36.0589 14.1312H27.706ZM37.1012 4.63517H26.6106V1.49993H37.1012V4.63517Z" fill="#3D8B86"/>
</svg>
