<svg width="30" height="20" viewBox="0 0 30 20" fill="none" xmlns="http://www.w3.org/2000/svg">
<path d="M12.1051 8.56095C12.1051 8.56095 14.9436 8.34853 14.9436 4.99318C14.9436 1.63759 12.6213 0 9.67973 0H0V18.7515H9.67973C9.67973 18.7515 15.5889 18.9397 15.5889 13.2169C15.5889 13.217 15.8465 8.56095 12.1051 8.56095ZM8.98299 3.33287H9.67973C9.67973 3.33287 10.9955 3.33287 10.9955 5.28388C10.9955 7.23465 10.2217 7.51748 9.34398 7.51748H4.26501V3.33287H8.98299ZM9.4062 15.4187H4.26501V10.4076H9.67973C9.67973 10.4076 11.6408 10.3817 11.6408 12.9828C11.6408 15.1761 10.1761 15.4022 9.4062 15.4187ZM23.4697 4.77093C16.3161 4.77093 16.3224 11.9758 16.3224 11.9758C16.3224 11.9758 15.8316 19.1437 23.4697 19.1437C23.4697 19.1437 29.8347 19.5103 29.8347 14.1574H26.5613C26.5613 14.1574 26.6705 16.1732 23.5789 16.1732C23.5789 16.1732 20.3049 16.3944 20.3049 12.9109H29.9439C29.9439 12.9108 30.9986 4.77093 23.4697 4.77093ZM20.2689 10.4076C20.2689 10.4076 20.6686 7.51742 23.5424 7.51742C26.4156 7.51742 26.3796 10.4076 26.3796 10.4076H20.2689ZM27.1421 3.41381H19.4675V1.1047H27.1421V3.41381Z" fill="#3D8B86"/>
</svg>
