<svg width="30" height="31" viewBox="0 0 30 31" fill="none" xmlns="http://www.w3.org/2000/svg">
<path d="M15.0066 7.44199C10.7477 7.44199 7.31239 10.8773 7.31239 15.1362C7.31239 19.3951 10.7477 22.8304 15.0066 22.8304C19.2655 22.8304 22.7008 19.3951 22.7008 15.1362C22.7008 10.8773 19.2655 7.44199 15.0066 7.44199ZM15.0066 20.1384C12.2544 20.1384 10.0044 17.8951 10.0044 15.1362C10.0044 12.3773 12.2477 10.134 15.0066 10.134C17.7655 10.134 20.0088 12.3773 20.0088 15.1362C20.0088 17.8951 17.7588 20.1384 15.0066 20.1384ZM24.8102 7.12726C24.8102 8.12503 24.0066 8.9219 23.0155 8.9219C22.0178 8.9219 21.2209 8.11833 21.2209 7.12726C21.2209 6.13619 22.0245 5.33261 23.0155 5.33261C24.0066 5.33261 24.8102 6.13619 24.8102 7.12726ZM29.9061 8.94869C29.7923 6.54467 29.2432 4.4152 27.482 2.66074C25.7276 0.906276 23.5981 0.357169 21.1941 0.236633C18.7164 0.0960083 11.2901 0.0960083 8.8124 0.236633C6.41507 0.350473 4.28561 0.89958 2.52445 2.65404C0.763288 4.40851 0.220877 6.53797 0.100342 8.94199C-0.0402832 11.4197 -0.0402832 18.846 0.100342 21.3237C0.214181 23.7277 0.763288 25.8572 2.52445 27.6116C4.28561 29.3661 6.40838 29.9152 8.8124 30.0357C11.2901 30.1764 18.7164 30.1764 21.1941 30.0357C23.5981 29.9219 25.7276 29.3728 27.482 27.6116C29.2365 25.8572 29.7856 23.7277 29.9061 21.3237C30.0468 18.846 30.0468 11.4264 29.9061 8.94869ZM26.7053 23.9822C26.1829 25.2947 25.1718 26.3058 23.8526 26.8348C21.8771 27.6183 17.1896 27.4375 15.0066 27.4375C12.8236 27.4375 8.12936 27.6116 6.16061 26.8348C4.84811 26.3125 3.83695 25.3014 3.30793 23.9822C2.52445 22.0067 2.70525 17.3192 2.70525 15.1362C2.70525 12.9532 2.53115 8.25895 3.30793 6.2902C3.83025 4.9777 4.84141 3.96654 6.16061 3.43753C8.13606 2.65404 12.8236 2.83485 15.0066 2.83485C17.1896 2.83485 21.8838 2.66074 23.8526 3.43753C25.1651 3.95985 26.1762 4.97101 26.7053 6.2902C27.4887 8.26565 27.3079 12.9532 27.3079 15.1362C27.3079 17.3192 27.4887 22.0134 26.7053 23.9822Z" fill="#3D8B86"/>
</svg>
